<svg xmlns="http://www.w3.org/2000/svg" width="1" height="1" viewBox="0 0 1 1" aria-hidden="true">
  <rect width="1" height="1" fill="none" opacity="0"/>

  <defs>
    <linearGradient id="grad-dark" x1="0" y1="0" x2="1" y2="1">
      <stop offset="0%" stop-color="#4E808D"/>
      <stop offset="100%" stop-color="#74AAB4"/>
    </linearGradient>
  </defs>
<symbol id="ai-tools-wrench" viewBox="0 0 96 96">
  <g fill="none" stroke="#4E808D" stroke-width="4" stroke-linecap="round" stroke-linejoin="round">
    <path d="M30 34 l8 8 m4 4 l16 16" />
    <path d="M42 46 l16 16" />
    <circle cx="28" cy="32" r="8" fill="#0F1214" stroke="#4E808D"/>
    <path d="M50 26 l8 8 l-8 8 l-8 -8 z" fill="url(#grad-dark)" stroke="#4E808D"/>
  </g>
</symbol>
<symbol id="ai-tools-zap" viewBox="0 0 96 96">
  <path d="M48 18 L30 54 H46 L40 78 L66 42 H50 Z" fill="url(#grad-dark)" stroke="#4E808D" stroke-width="3" stroke-linejoin="round"/>
</symbol>
<symbol id="applications-filetext" viewBox="0 0 96 96">
  <rect x="24" y="18" width="48" height="60" rx="8" fill="#0F1214" stroke="#161A1D" stroke-width="3"/>
  <rect x="32" y="34" width="32" height="5" rx="2.5" fill="#161A1D"/>
  <rect x="32" y="46" width="28" height="5" rx="2.5" fill="#161A1D"/>
  <rect x="32" y="58" width="22" height="5" rx="2.5" fill="#161A1D"/>
  <rect x="24" y="18" width="48" height="12" rx="8" fill="url(#grad-dark)"/>
</symbol>
<symbol id="applications-briefcase" viewBox="0 0 96 96">
  <rect x="22" y="34" width="52" height="34" rx="8" fill="#0F1214" stroke="#161A1D" stroke-width="3"/>
  <rect x="38" y="28" width="20" height="10" rx="5" fill="#0F1214" stroke="#161A1D" stroke-width="3"/>
  <rect x="22" y="48" width="52" height="6" rx="3" fill="url(#grad-dark)"/>
  <circle cx="48" cy="51" r="3" fill="#4E808D"/>
</symbol>
<symbol id="contacts-users" viewBox="0 0 96 96">
  <circle cx="36" cy="42" r="9" fill="#4E808D" opacity="0.9"/>
  <circle cx="56" cy="42" r="9" fill="#74AAB4" opacity="0.9"/>
  <path d="M24 64 C24 54, 32 52, 36 52 C40 52, 48 54, 48 64" fill="#0F1214" stroke="#161A1D" stroke-width="3"/>
  <path d="M44 64 C44 54, 52 52, 56 52 C60 52, 68 54, 68 64" fill="#0F1214" stroke="#161A1D" stroke-width="3"/>
  <path d="M36 52 L56 52" stroke="#4E808D" stroke-width="3" stroke-linecap="round"/>
</symbol>
<symbol id="contacts-messagecircle" viewBox="0 0 96 96">
  <path d="M28 34 a18 18 0 1 0 0.1 0" fill="#0F1214" stroke="#161A1D" stroke-width="3"/>
  <path d="M28 68 l6 -10" stroke="#161A1D" stroke-width="3" stroke-linecap="round"/>
  <rect x="26" y="40" width="20" height="6" rx="3" fill="#161A1D"/>
  <rect x="26" y="50" width="28" height="6" rx="3" fill="#161A1D"/>
  <circle cx="62" cy="40" r="10" fill="url(#grad-dark)"/>
</symbol>
<symbol id="profile-filetext" viewBox="0 0 96 96">
  <rect x="24" y="22" width="48" height="52" rx="8" fill="#0F1214" stroke="#161A1D" stroke-width="3"/>
  <rect x="32" y="36" width="32" height="5" rx="2.5" fill="#161A1D"/>
  <rect x="32" y="48" width="24" height="5" rx="2.5" fill="#161A1D"/>
  <circle cx="48" cy="30" r="6" fill="url(#grad-dark)"/>
</symbol>
<symbol id="profile-user" viewBox="0 0 96 96">
  <circle cx="48" cy="36" r="10" fill="url(#grad-dark)"/>
  <path d="M28 70 C28 54, 40 52, 48 52 C56 52, 68 54, 68 70" fill="#0F1214" stroke="#161A1D" stroke-width="3"/>
</symbol>
<symbol id="total-jobs" viewBox="0 0 96 96">
  <rect x="22" y="24" width="20" height="16" rx="4" fill="#0F1214" stroke="#161A1D" stroke-width="3"/>
  <rect x="40" y="24" width="34" height="16" rx="4" fill="#0F1214" stroke="#161A1D" stroke-width="3"/>
  <rect x="22" y="44" width="52" height="16" rx="4" fill="#0F1214" stroke="#161A1D" stroke-width="3"/>
  <rect x="22" y="64" width="52" height="8" rx="4" fill="url(#grad-dark)"/>
</symbol>
<symbol id="high-matches" viewBox="0 0 96 96">
  <circle cx="48" cy="48" r="20" fill="#0F1214" stroke="#4E808D" stroke-width="3"/>
  <circle cx="48" cy="48" r="10" fill="none" stroke="#74AAB4" stroke-width="3"/>
  <circle cx="48" cy="48" r="3" fill="#74AAB4"/>
  <path d="M48 26 v-6 M48 76 v-6 M26 48 h-6 M76 48 h-6" stroke="#4E808D" stroke-width="3" stroke-linecap="round"/>
</symbol>
<symbol id="interviews" viewBox="0 0 96 96">
  <path d="M22 34 a16 16 0 1 0 0.1 0" fill="#0F1214" stroke="#161A1D" stroke-width="3"/>
  <path d="M22 62 l6 -8" stroke="#161A1D" stroke-width="3" stroke-linecap="round"/>
  <rect x="26" y="38" width="20" height="6" rx="3" fill="#161A1D"/>
  <path d="M52 40 a12 12 0 1 0 0.1 0" fill="#0F1214" stroke="#161A1D" stroke-width="3"/>
  <circle cx="68" cy="32" r="8" fill="#74AAB4"/>
  <path d="M64 32 l3 3 l6 -6" stroke="#0F1214" stroke-width="3" fill="none" stroke-linecap="round"/>
</symbol>
</svg>