<?xml version="1.0" encoding="UTF-8"?>
<svg xmlns="http://www.w3.org/2000/svg" style="display:none">
  <symbol id="i-briefcase" viewBox="0 0 24 24">
    <rect x="3" y="7" width="18" height="13" rx="2" stroke="currentColor" stroke-width="1.5" fill="none"/>
    <path d="M9 7V5a2 2 0 0 1 2-2h2a2 2 0 0 1 2 2v2" stroke="currentColor" stroke-width="1.5" fill="none"/>
    <path d="M3 12h18" stroke="currentColor" stroke-width="1.5"/>
  </symbol>
  <symbol id="i-search" viewBox="0 0 24 24">
    <circle cx="11" cy="11" r="6" stroke="currentColor" stroke-width="1.5" fill="none"/>
    <path d="M21 21l-4.2-4.2" stroke="currentColor" stroke-width="1.5"/>
  </symbol>
  <symbol id="i-star" viewBox="0 0 24 24">
    <path d="M12 3.5l2.9 5.88 6.5.95-4.7 4.58 1.1 6.44L12 18.8l-5.8 3.07 1.1-6.44L2.6 10.33l6.5-.95L12 3.5z" stroke="currentColor" stroke-width="1.5" fill="none"/>
  </symbol>
  <symbol id="i-check" viewBox="0 0 24 24">
    <path d="M5 12.5l4 4 10-10" stroke="currentColor" stroke-width="1.5" fill="none"/>
  </symbol>
  <symbol id="i-bell" viewBox="0 0 24 24">
    <path d="M15 17H9c-2 0-3-1-3-3V10a6 6 0 1 1 12 0v4c0 2-1 3-3 3z" stroke="currentColor" stroke-width="1.5" fill="none"/>
    <path d="M10 20a2 2 0 0 0 4 0" stroke="currentColor" stroke-width="1.5" fill="none"/>
  </symbol>
</svg>
