<?xml version="1.0" encoding="UTF-8"?>
<svg version="1.1" xmlns="http://www.w3.org/2000/svg" width="512" height="512">
<path d="M0 0 C2.76293945 1.15478516 2.76293945 1.15478516 5.61328125 2.7890625 C7.21997681 3.69688477 7.21997681 3.69688477 8.85913086 4.62304688 C10.56854858 5.61401367 10.56854858 5.61401367 12.3125 6.625 C13.50913017 7.30659858 14.70648892 7.98691949 15.90454102 8.66601562 C18.37822201 10.07001176 20.84810601 11.48037138 23.31542969 12.89550781 C28.99460546 16.14731503 34.71984581 19.3164898 40.4375 22.5 C42.39541926 23.59215959 44.35248305 24.6858545 46.30859375 25.78125 C47.20492523 26.2704744 48.10125671 26.75969879 49.02474976 27.26374817 C52 29 52 29 54.39363098 30.81385803 C64.29883597 37.89070639 74.66735005 36.98759026 86.390625 36.90234375 C88.54825338 36.91174112 90.70587036 36.92420645 92.86346436 36.93959045 C98.50573452 36.97167039 104.14718772 36.96242679 109.78948975 36.94421387 C115.56157194 36.93301523 121.33344954 36.96139878 127.10546875 36.98632812 C138.40387952 37.02935437 149.70153479 37.02500781 161 37 C161.33 46.9 161.66 56.8 162 67 C162.99 67.33 163.98 67.66 165 68 C162.84071065 75.39393019 160.4695482 82.70417741 158 90 C158.78375 90.28875 159.5675 90.5775 160.375 90.875 C163 92 163 92 165 94 C162.36 98.62 159.72 103.24 157 108 C148.66403936 103.99873889 140.66169411 99.58201203 132.65356445 94.96801758 C124.23046731 90.11659387 115.75291969 85.36604532 107.26293945 80.6328125 C106.25835693 80.07207031 105.25377441 79.51132813 104.21875 78.93359375 C103.33123047 78.43915771 102.44371094 77.94472168 101.52929688 77.43530273 C99 76 99 76 96.83013725 74.43830872 C93.24987036 72.61877538 90.11388819 72.55245683 86.18850708 72.55175781 C85.01812718 72.53415437 85.01812718 72.53415437 83.82410324 72.5161953 C81.21227745 72.48084669 78.60079179 72.46688937 75.98876953 72.453125 C74.11403194 72.43268381 72.2393063 72.4111204 70.36459351 72.38851929 C64.20409607 72.32026856 58.04357782 72.28416226 51.8828125 72.25 C49.75450422 72.23653729 47.62619687 72.22292579 45.49789047 72.20916748 C36.63118099 72.15378039 27.76449425 72.10611234 18.89764595 72.08004761 C6.23866895 72.04280316 -6.41813453 71.96128152 -19.07633674 71.81491852 C-27.99987477 71.71532184 -36.92284205 71.66669029 -45.84692299 71.65483856 C-51.16322745 71.64654459 -56.47732667 71.61736538 -61.79302597 71.53381348 C-93.30385442 70.74016446 -93.30385442 70.74016446 -120.9765501 84.47564316 C-123.90125441 86.67895594 -126.99125257 88.33433984 -130.22265625 90.05078125 C-131.2062915 90.60040527 -132.18992676 91.1500293 -133.20336914 91.71630859 C-134.14688232 92.24305176 -135.09039551 92.76979492 -136.0625 93.3125 C-144.73564817 98.16146468 -153.38969155 103.04021589 -162 108 C-165.03656917 105.4011345 -166.46163739 102.37928272 -168.1875 98.8125 C-168.71730469 97.72582031 -169.24710937 96.63914062 -169.79296875 95.51953125 C-170.19128906 94.68808594 -170.58960938 93.85664063 -171 93 C-169.02 91.68 -167.04 90.36 -165 89 C-165.15146484 88.43490723 -165.30292969 87.86981445 -165.45898438 87.28759766 C-166.14188476 84.73407552 -166.82098664 82.17955836 -167.5 79.625 C-167.73847656 78.73554688 -167.97695312 77.84609375 -168.22265625 76.9296875 C-168.44824219 76.07890625 -168.67382812 75.228125 -168.90625 74.3515625 C-169.11572266 73.56604004 -169.32519531 72.78051758 -169.54101562 71.97119141 C-170 70 -170 70 -170 68 C-169.01 68 -168.02 68 -167 68 C-167 57.77 -167 47.54 -167 37 C-164.15173584 37.03778564 -161.30347168 37.07557129 -158.36889648 37.11450195 C-148.86555915 37.23084118 -139.36285325 37.2737853 -129.85883999 37.28240681 C-124.1066784 37.289807 -118.35676999 37.32048458 -112.60522461 37.40795898 C-78.21021427 38.84956718 -78.21021427 38.84956718 -48.00759888 24.56845093 C-45.11138907 22.30576638 -42.06424313 20.69504099 -38.8125 18.984375 C-37.83450439 18.43990723 -36.85650879 17.89543945 -35.84887695 17.33447266 C-33.85286099 16.22433952 -31.85658216 15.11467896 -29.86010742 14.00537109 C-25.28921374 11.45303027 -20.74686727 8.88230615 -16.30078125 6.1171875 C-15.61435547 5.69083008 -14.92792969 5.26447266 -14.22070312 4.82519531 C-12.46785302 3.7227118 -10.72741345 2.60056098 -8.98828125 1.4765625 C-5.55453403 -0.2201126 -3.7894617 -0.31929724 0 0 Z " fill="#A7C2A2" transform="translate(259,89)"/>
<path d="M0 0 C1.46597921 0.45572239 2.93218063 0.91073051 4.39859009 1.36506653 C8.25026916 2.56056943 12.0988129 3.76586959 15.94677734 4.9732666 C19.79986554 6.18031857 23.65592152 7.377808 27.51171875 8.57617188 C34.06880024 10.61528273 40.62218404 12.6659399 47.17359543 14.7231884 C51.19256214 15.98395205 55.2157612 17.22985071 59.24316406 18.46337891 C60.14410797 18.74135818 61.04505188 19.01933746 61.97329712 19.30574036 C63.5627407 19.79579223 65.15359388 20.28130895 66.7461853 20.7610321 C71.68871356 22.29418231 71.68871356 22.29418231 73.9140625 24.51953125 C11.2140625 24.51953125 -51.4859375 24.51953125 -116.0859375 24.51953125 C-112.33209686 21.70415077 -109.32686254 20.43033468 -104.95336914 19.13110352 C-103.886539 18.80358597 -103.886539 18.80358597 -102.79815674 18.4694519 C-100.44974282 17.75057291 -98.09801592 17.04324575 -95.74609375 16.3359375 C-94.10121789 15.83485532 -92.45656271 15.3330482 -90.81211853 14.83055115 C-86.47752623 13.50811896 -82.14004638 12.19541769 -77.80187988 10.88476562 C-73.43063468 9.56235184 -69.06209169 8.23107766 -64.69335938 6.90039062 C-59.76009232 5.39840839 -54.82654546 3.89738603 -49.89112854 2.40248108 C-49.13814704 2.17415557 -48.38516554 1.94583006 -47.60936642 1.71058559 C-46.143175 1.26721194 -44.67633335 0.82598201 -43.20880222 0.38706303 C-39.92308587 -0.59901136 -36.67004082 -1.62292001 -33.42355347 -2.7348938 C-20.94554577 -6.95590639 -12.21953335 -3.85291863 0 0 Z " fill="#4E808D" transform="translate(277.0859375,136.48046875)"/>
<path d="M0 0 C0.98742187 0.59039062 1.97484375 1.18078125 2.9921875 1.7890625 C3.56654541 2.11632324 4.14090332 2.44358398 4.73266602 2.78076172 C6.04753542 3.53409876 7.35276935 4.3044085 8.64990234 5.08789062 C11.09914705 6.55279893 13.58094581 7.94732487 16.07421875 9.3359375 C21.01825607 12.09391461 25.93951096 14.88996796 30.85595703 17.69677734 C35.64430423 20.42754061 40.4432605 23.1394498 45.2421875 25.8515625 C46.63691284 26.6415564 46.63691284 26.6415564 48.05981445 27.44750977 C53.25896933 30.38929486 58.47007144 33.30789989 63.6953125 36.203125 C64.8292041 36.8329126 65.9630957 37.4627002 67.13134766 38.11157227 C69.32154195 39.32695031 71.51382939 40.53856635 73.70849609 41.74584961 C75.19857178 42.57354858 75.19857178 42.57354858 76.71875 43.41796875 C77.59354004 43.90080322 78.46833008 44.3836377 79.36962891 44.88110352 C82.05864442 46.5315755 84.44403383 48.39748371 86.8671875 50.4140625 C81.08236038 49.20810166 75.45429261 47.77072114 69.828125 45.96801758 C69.08048889 45.73203354 68.33285278 45.4960495 67.56256104 45.25291443 C65.95638836 44.74584204 64.35068653 44.23727617 62.74542236 43.72733498 C59.32035617 42.64129376 55.89113124 41.56868223 52.46212769 40.49515057 C46.09684344 38.50215451 39.73339949 36.50369217 33.37695312 34.48266602 C28.93620006 33.07129938 24.49039195 31.67701613 20.04083252 30.29367638 C18.35488281 29.76606889 16.67086737 29.2322363 14.98895264 28.69190407 C12.63277987 27.93574471 10.27072944 27.20162299 7.90625 26.47192383 C7.22338928 26.24705292 6.54052856 26.02218201 5.8369751 25.79049683 C-2.0533892 23.41166821 -9.26184524 25.17730438 -16.92822266 27.62304688 C-17.64981064 27.84591873 -18.37139862 28.06879059 -19.11485291 28.29841614 C-21.46955192 29.02752277 -23.82059367 29.76776696 -26.171875 30.5078125 C-27.82349379 31.02051486 -29.47538481 31.53234098 -31.12753296 32.04333496 C-35.45712802 33.38423234 -39.78393818 34.73387506 -44.10992432 36.08636475 C-51.03905593 38.25232731 -57.97077664 40.40984401 -64.90546799 42.55793762 C-67.31702601 43.3071556 -69.72638408 44.06315333 -72.13565063 44.81970215 C-73.62241157 45.28177091 -75.10925425 45.74357676 -76.59619141 46.20507812 C-77.25819046 46.41497879 -77.92018951 46.62487946 -78.60224915 46.84114075 C-82.7883093 48.13131624 -86.80030578 48.89635997 -91.1328125 49.4140625 C-88.26334458 47.16934789 -85.33588129 45.31895319 -82.15234375 43.55078125 C-81.16621094 43.00099609 -80.18007812 42.45121094 -79.1640625 41.88476562 C-78.101875 41.29630859 -77.0396875 40.70785156 -75.9453125 40.1015625 C-73.67053017 38.83471218 -71.39579179 37.56778292 -69.12109375 36.30078125 C-67.94615896 35.64756495 -66.7711915 34.99440741 -65.59619141 34.34130859 C-60.2687689 31.37678912 -54.95099477 28.39511584 -49.6328125 25.4140625 C-47.57036254 24.25902523 -45.50786225 23.10407783 -43.4453125 21.94921875 C-39.07007864 19.4991152 -34.69512039 17.0485203 -30.3203125 14.59765625 C-29.20076172 13.97052734 -28.08121094 13.34339844 -26.92773438 12.69726562 C-24.79875671 11.50468477 -22.66984576 10.3119848 -20.54101562 9.11914062 C-18.62818963 8.04770387 -16.71215909 6.98196158 -14.79248047 5.92285156 C-13.04689312 4.93260649 -11.3251809 3.89878123 -9.63330078 2.81933594 C-3.92988818 -0.73501649 -3.92988818 -0.73501649 0 0 Z " fill="#81B5B6" transform="translate(259.1328125,107.5859375)"/>
<path d="M0 0 C31.68 0 63.36 0 96 0 C92.24615936 2.81538048 89.24092504 4.08919657 84.86743164 5.38842773 C84.15621155 5.60677277 83.44499146 5.8251178 82.71221924 6.05007935 C80.36380532 6.76895834 78.01207842 7.4762855 75.66015625 8.18359375 C74.01528039 8.68467593 72.37062521 9.18648305 70.72618103 9.6889801 C66.39158873 11.01141229 62.05410888 12.32411356 57.71594238 13.63476562 C53.34469718 14.95717941 48.97615419 16.28845359 44.60742188 17.61914062 C39.67415482 19.12112286 34.74060796 20.62214522 29.80519104 22.11705017 C29.05180671 22.34529511 28.29842237 22.57354006 27.52220821 22.80870152 C26.05963277 23.25138482 24.59685277 23.69339299 23.13385105 24.13466549 C19.80258925 25.14117601 16.47697023 26.16074361 13.16183472 27.2192688 C12.00426666 27.58656097 10.84669861 27.95385315 9.65405273 28.33227539 C8.65212387 28.65555313 7.65019501 28.97883087 6.61790466 29.31190491 C4 30 4 30 0 30 C0 20.1 0 10.2 0 0 Z " fill="#4E808D" transform="translate(92,126)"/>
<path d="M0 0 C31.35 0 62.7 0 95 0 C95 9.9 95 19.8 95 30 C89.60387436 28.80086097 84.54397697 27.64780191 79.31298828 26.03222656 C78.07364532 25.65132874 76.83430237 25.27043091 75.55740356 24.87799072 C74.22834508 24.46562612 72.89931549 24.0531684 71.5703125 23.640625 C70.17146592 23.20916244 68.77252805 22.77799577 67.37350464 22.34710693 C63.70067785 21.21495344 60.02920127 20.07848075 56.35797119 18.94116211 C52.68485194 17.80423707 49.01030497 16.67194551 45.3359375 15.5390625 C39.06898209 13.60617117 32.80451911 11.6653774 26.54184341 9.71866608 C22.6190446 8.49998547 18.6930098 7.29241169 14.76464844 6.09179688 C13.02793927 5.55616956 11.2912804 5.02037913 9.5546875 4.484375 C8.79229767 4.25429749 8.02990784 4.02421997 7.24441528 3.78717041 C2.22714959 2.22714959 2.22714959 2.22714959 0 0 Z " fill="#4E808D" transform="translate(325,126)"/>
<path d="M0 0 C6.04187779 1.25903678 11.93001434 2.78983401 17.82446289 4.61376953 C18.65483063 4.86765442 19.48519836 5.12153931 20.34072876 5.38311768 C23.05238418 6.21308474 25.76251928 7.04790189 28.47265625 7.8828125 C30.36542165 8.4631821 32.25828102 9.04324534 34.15122986 9.62301636 C39.10867783 11.14227307 44.06484623 12.66566251 49.02075195 14.18994141 C54.08793225 15.74763468 59.15632232 17.30138114 64.22460938 18.85546875 C74.15092175 21.89980309 84.07588568 24.94850857 94 28 C93.52521815 29.59645501 93.04933847 31.19258355 92.57299805 32.78857422 C92.30811081 33.67745331 92.04322357 34.5663324 91.77030945 35.48214722 C90.87745375 38.40055776 89.87598883 41.26458178 88.8125 44.125 C88.29623047 45.52105469 88.29623047 45.52105469 87.76953125 46.9453125 C87.51558594 47.62335938 87.26164062 48.30140625 87 49 C83.72243948 47.73926126 80.62855917 46.34670898 77.54296875 44.671875 C76.26413818 43.97783569 76.26413818 43.97783569 74.95947266 43.26977539 C74.04472168 42.76824951 73.1299707 42.26672363 72.1875 41.75 C71.22118652 41.22204834 70.25487305 40.69409668 69.25927734 40.15014648 C61.1292598 35.67987876 53.12582416 31.00864924 45.13256836 26.29956055 C36.92411144 21.48587311 28.59132865 16.93216677 20.20947266 12.42895508 C4.69747169 4.0904419 4.69747169 4.0904419 0 1 C0 0.67 0 0.34 0 0 Z " fill="#81B5B6" transform="translate(330,129)"/>
<path d="M0 0 C-0.54599854 0.29543701 -1.09199707 0.59087402 -1.65454102 0.89526367 C-14.18890622 7.68541704 -26.64860469 14.59357944 -39.046875 21.62890625 C-46.42852569 25.81586322 -53.83700555 29.95474729 -61.24780273 34.08984375 C-65.71063269 36.58316356 -70.16734182 39.08235849 -74.58203125 41.66015625 C-75.56514282 42.23286255 -75.56514282 42.23286255 -76.56811523 42.81713867 C-78.22337334 43.78622844 -79.8736658 44.76378691 -81.5234375 45.7421875 C-84 47 -84 47 -87 47 C-87.83732743 43.87605609 -88.66917982 40.75068026 -89.5 37.625 C-89.73847656 36.73554688 -89.97695312 35.84609375 -90.22265625 34.9296875 C-90.44824219 34.07890625 -90.67382812 33.228125 -90.90625 32.3515625 C-91.11572266 31.56604004 -91.32519531 30.78051758 -91.54101562 29.97119141 C-92 28 -92 28 -92 26 C-82.90629932 23.21682607 -73.81228961 20.43466475 -64.71790409 17.65372944 C-60.49318553 16.36183662 -56.26856675 15.06961964 -52.04418945 13.77661133 C-47.95304536 12.52439734 -43.86162163 11.27310075 -39.77001762 10.02239037 C-38.22375315 9.5495666 -36.67758287 9.07643467 -35.13151741 8.60296059 C-30.81809386 7.28212162 -26.50230219 5.96951569 -22.18404007 4.66458511 C-19.86689993 3.95949876 -17.5540206 3.24131125 -15.24093628 2.52304077 C-13.6938578 2.05039456 -12.1466708 1.57810341 -10.59936523 1.10620117 C-9.88079629 0.87976331 -9.16222734 0.65332544 -8.42188358 0.42002583 C-3.34045911 -1.11348637 -3.34045911 -1.11348637 0 0 Z " fill="#81B5B6" transform="translate(181,131)"/>
</svg>
